<svg xmlns="http://www.w3.org/2000/svg" xmlns:xlink="http://www.w3.org/1999/xlink" width="192" zoomAndPan="magnify" viewBox="0 0 144 143.999998" height="192" preserveAspectRatio="xMidYMid meet" version="1.0"><defs><clipPath id="2d6babcbc4"><path d="M 6.101562 39.09375 L 138 39.09375 L 138 105 L 6.101562 105 Z M 6.101562 39.09375 " clip-rule="nonzero"/></clipPath></defs><rect x="-14.4" width="172.8" fill="#ffffff" y="-14.4" height="172.799997" fill-opacity="1"/><rect x="-14.4" width="172.8" fill="#c1826b" y="-14.4" height="172.799997" fill-opacity="1"/><g clip-path="url(#2d6babcbc4)"><path fill="#ffffff" d="M 83.351562 76.160156 C 83.652344 76.082031 84.007812 76.3125 84.007812 76.605469 C 84.015625 89.652344 83.859375 89.140625 84.0625 89.121094 C 84.171875 89.109375 84.214844 88.972656 84.222656 88.867188 C 84.234375 88.726562 84.152344 88.570312 84.300781 88.453125 L 84.292969 88.457031 C 84.488281 88.476562 84.683594 88.496094 84.878906 88.515625 C 84.878906 88.675781 84.878906 88.839844 84.878906 89.085938 C 85.007812 88.863281 85.144531 88.800781 85.324219 88.835938 C 85.386719 88.847656 85.449219 88.828125 85.445312 88.746094 C 85.4375 88.507812 85.484375 88.269531 85.421875 88.035156 C 85.367188 87.835938 85.203125 87.988281 85.105469 87.9375 C 84.972656 87.875 84.746094 88.101562 84.722656 87.914062 C 84.703125 87.738281 84.957031 87.847656 85.085938 87.820312 C 85.25 87.78125 85.390625 87.679688 85.566406 87.683594 C 85.6875 87.6875 85.566406 61.605469 85.566406 61.554688 C 85.550781 60.992188 85.707031 61.1875 86.105469 61.058594 C 86.117188 61.074219 86.101562 61.132812 86.148438 61.085938 C 86.128906 61.082031 86.113281 61.074219 86.097656 61.070312 C 86.265625 60.828125 86.816406 61.105469 87.078125 60.257812 C 87.09375 60.203125 87.132812 60.160156 87.175781 60.171875 C 87.402344 60.230469 87.5625 60.019531 87.785156 60.03125 C 87.976562 60.042969 88.238281 59.683594 88.253906 59.476562 C 88.277344 59.089844 88.179688 58.703125 88.199219 58.324219 C 88.414062 54.167969 87.910156 54.050781 88.390625 53.148438 C 88.441406 53.054688 88.710938 53.226562 88.71875 53.390625 C 88.742188 53.8125 88.84375 54.273438 88.757812 54.65625 C 88.515625 55.773438 88.925781 56.753906 88.683594 59.5 C 88.679688 59.546875 88.585938 59.921875 88.921875 59.71875 C 88.976562 59.6875 88.988281 59.703125 89.027344 59.929688 C 89.011719 59.933594 89 59.941406 88.984375 59.949219 C 88.988281 59.957031 88.996094 59.964844 89 59.972656 C 89.007812 59.957031 89.019531 59.941406 89.027344 59.925781 C 89.460938 60.324219 90.027344 60.015625 89.980469 60.304688 C 89.9375 60.550781 90.082031 60.78125 90.011719 61.03125 C 89.988281 61.113281 90.121094 61.121094 90.339844 61.039062 L 90.332031 61.046875 C 90.636719 61.160156 90.953125 61.074219 91.261719 61.097656 C 91.300781 61.097656 91.363281 61.058594 91.304688 60.976562 C 91.261719 60.917969 91.246094 60.835938 91.214844 60.765625 C 91.214844 60.765625 91.230469 60.773438 91.230469 60.773438 C 91.285156 60.75 91.285156 60.722656 91.230469 60.699219 L 91.214844 60.707031 C 91.242188 60.585938 91.042969 60.613281 91.074219 60.484375 C 91.21875 60.4375 91.242188 60.675781 91.386719 60.621094 C 91.40625 60.621094 91.425781 60.617188 91.445312 60.617188 C 91.4375 60.609375 91.433594 60.597656 91.425781 60.589844 C 91.414062 60.601562 91.398438 60.613281 91.386719 60.628906 C 91.476562 60.660156 91.449219 60.5 91.5625 60.546875 C 91.480469 60.75 91.519531 60.828125 91.773438 60.777344 C 91.96875 60.738281 92.175781 60.792969 92.382812 60.746094 C 92.484375 60.722656 92.574219 60.765625 92.597656 60.886719 C 92.621094 60.871094 92.589844 60.890625 92.5625 60.90625 C 92.578125 60.921875 92.59375 60.9375 92.605469 60.953125 L 92.597656 60.945312 C 92.582031 61.019531 92.410156 61.042969 92.5 61.113281 C 92.757812 61.320312 93 60.910156 93.171875 61.042969 C 93.28125 61.125 93.328125 61.289062 93.15625 61.410156 C 93.132812 61.425781 93.140625 63.136719 93.140625 63.167969 C 93.140625 63.261719 93.136719 63.378906 93.242188 63.386719 C 93.394531 63.394531 93.683594 63.492188 93.488281 63.613281 C 93.9375 63.664062 94.347656 63.695312 94.757812 63.734375 C 95.070312 63.765625 95.375 63.613281 95.691406 63.746094 C 95.816406 63.796875 95.878906 63.863281 95.867188 63.960938 C 95.621094 66.09375 95.878906 75.324219 95.746094 79.351562 C 96.042969 79.410156 99.046875 79.578125 99.226562 79.714844 C 99.3125 79.191406 99.1875 77.914062 99.261719 77.285156 C 99.363281 76.445312 99.351562 76.347656 99.765625 76.359375 C 100.441406 76.382812 99.808594 75.761719 100.507812 75.757812 C 101.203125 75.757812 100.980469 75.707031 102.054688 75.589844 C 102.054688 75.589844 102.066406 75.578125 102.066406 75.578125 L 102.050781 75.585938 C 102.21875 75.355469 101.921875 75.339844 101.882812 75.203125 C 101.984375 75.167969 102.066406 75.140625 102.207031 75.203125 C 102.457031 75.308594 102.742188 75.214844 103.011719 75.191406 C 103.269531 75.167969 102.878906 73.433594 103.121094 72.886719 C 103.210938 72.6875 103.390625 72.886719 103.527344 72.839844 C 103.945312 72.703125 104.371094 72.917969 104.40625 72.6875 C 104.429688 72.566406 104.863281 72.671875 105.023438 72.65625 C 105.144531 72.644531 105.121094 72.496094 105.128906 72.40625 C 105.160156 72.023438 105.171875 72.019531 105.546875 72.015625 C 107.21875 72.007812 106.347656 71.871094 106.6875 71.636719 C 106.828125 71.671875 106.613281 71.859375 106.785156 71.878906 C 107.054688 71.910156 106.777344 71.582031 107.015625 71.589844 C 107.0625 71.648438 106.953125 71.71875 106.96875 71.796875 C 106.980469 71.875 106.960938 71.96875 107.082031 71.957031 C 107.316406 71.933594 107.347656 72.078125 107.328125 72.257812 C 107.28125 72.625 107.621094 72.4375 107.921875 72.652344 C 108.242188 72.878906 108.375 72.582031 108.550781 72.4375 C 108.667969 72.347656 108.457031 72.203125 108.554688 72.082031 C 108.726562 72.125 108.566406 72.3125 108.695312 72.371094 C 108.785156 72.324219 108.632812 72.230469 108.753906 72.175781 C 108.789062 72.632812 109.121094 72.484375 109.386719 72.488281 C 110.230469 72.492188 110.488281 72.269531 110.488281 72.792969 C 110.503906 80.890625 110.425781 86.515625 110.425781 86.515625 C 110.425781 86.808594 110.644531 86.597656 111.273438 86.734375 C 111.4375 86.769531 111.609375 86.6875 111.667969 86.957031 C 111.699219 87.09375 111.917969 87.027344 112.046875 87.035156 C 112.574219 87.066406 112.574219 87.0625 112.574219 86.53125 C 112.566406 85.050781 112.617188 83.574219 112.554688 82.09375 C 112.550781 81.964844 112.398438 81.128906 112.675781 80.679688 C 113.023438 80.121094 112.421875 79.4375 113.179688 78.804688 C 113.445312 78.578125 113.519531 78.242188 113.597656 77.949219 C 113.707031 77.527344 113.910156 77.140625 114.003906 76.714844 C 114.035156 76.570312 114.121094 76.539062 114.191406 76.703125 C 114.761719 78.113281 114.65625 78.050781 114.945312 78.007812 C 117.121094 77.65625 117.171875 78.191406 117.152344 77.335938 C 117.128906 76.101562 117.230469 74.867188 117.230469 73.632812 C 117.226562 73.523438 117.113281 73.441406 117.371094 73.429688 C 117.367188 73.417969 117.363281 73.410156 117.359375 73.398438 C 117.34375 73.410156 117.332031 73.421875 117.316406 73.433594 C 117.582031 73.257812 117.898438 73.296875 118.1875 73.226562 C 118.652344 73.109375 119.121094 73.195312 119.59375 73.210938 C 119.589844 73.035156 120.75 73.089844 121.519531 73.132812 C 122.453125 73.183594 121.902344 72.773438 122.355469 72.539062 L 122.34375 72.554688 C 122.351562 72.570312 122.359375 72.582031 122.367188 72.597656 C 122.382812 72.582031 122.398438 72.570312 122.414062 72.554688 L 122.40625 72.539062 C 123.335938 71.570312 124.429688 71.808594 124.625 71.894531 C 125.253906 72.175781 125.597656 71.535156 125.628906 72.121094 C 125.644531 72.4375 126.378906 72.15625 126.679688 72.226562 C 126.910156 72.28125 127.222656 72.085938 127.34375 72.457031 C 127.375 72.558594 127.449219 72.496094 127.511719 72.503906 C 128.023438 72.574219 127.890625 72.605469 127.898438 74.859375 C 127.925781 81.375 127.898438 82.515625 127.949219 82.613281 C 127.996094 81.953125 128.804688 82.25 129.8125 82.191406 C 129.960938 82.183594 130.101562 82.28125 130.265625 82.265625 C 130.378906 82.253906 130.398438 82.390625 130.398438 82.492188 C 130.398438 83.40625 130.308594 83.527344 130.644531 83.515625 C 132.8125 83.425781 131.976562 82.941406 132.160156 87.164062 C 132.175781 87.449219 132.292969 87.519531 132.523438 87.425781 C 132.710938 87.34375 132.863281 87.472656 133.042969 87.46875 C 133.484375 87.457031 133.351562 87.417969 133.40625 85.816406 C 133.410156 85.773438 133.4375 85.734375 133.496094 85.695312 C 133.496094 87.378906 133.460938 87.296875 133.574219 87.339844 C 134.132812 87.566406 134.011719 86.921875 134.722656 87.28125 C 134.960938 87.402344 134.992188 87.324219 134.992188 87.105469 C 134.984375 86.5 135.089844 85.894531 135.050781 85.289062 C 135.046875 85.234375 135.03125 85.167969 135.121094 85.128906 C 135.226562 85.253906 135.105469 85.660156 135.132812 85.953125 C 135.160156 86.300781 135.132812 86.300781 135.476562 86.230469 C 135.898438 86.144531 135.578125 86.894531 135.785156 86.914062 C 135.886719 86.921875 135.890625 86.785156 135.878906 86.734375 C 135.78125 86.210938 136.234375 86.429688 136.285156 86.378906 C 136.617188 86.050781 136.988281 86.359375 137.335938 86.320312 C 137.847656 86.261719 137.257812 87.339844 137.730469 87.402344 C 137.730469 93.15625 137.730469 98.910156 137.734375 104.664062 C 137.734375 105.09375 145.546875 104.9375 6.523438 104.9375 C 6.523438 85.117188 6.160156 89.609375 7.375 89.121094 C 7.90625 88.90625 8.738281 89.199219 8.804688 88.992188 C 9 88.351562 9.242188 88.949219 9.164062 88.480469 C 9.015625 87.597656 9.828125 88.683594 9.878906 87.878906 C 9.882812 87.808594 9.816406 87.707031 9.957031 87.703125 C 10.050781 87.695312 10.160156 87.707031 10.179688 87.582031 C 10.199219 87.445312 10.027344 87.488281 9.984375 87.40625 C 10.035156 87.300781 10.136719 87.324219 10.191406 87.347656 C 10.960938 87.636719 12.152344 87.253906 12.441406 87.613281 C 12.53125 87.726562 12.832031 87.683594 13.039062 87.683594 C 13.554688 87.683594 13.238281 88.238281 13.832031 88.175781 C 13.910156 88.167969 13.988281 88.179688 14.070312 88.179688 C 14.433594 88.179688 14.429688 88.179688 14.425781 88.582031 C 14.425781 88.707031 14.433594 88.867188 14.632812 88.816406 C 14.824219 88.765625 14.816406 89.03125 15.003906 89.019531 C 15.304688 89.003906 15.625 89.070312 15.902344 88.941406 C 16.148438 88.828125 16.382812 88.867188 16.617188 88.898438 C 16.960938 88.945312 17.324219 88.765625 17.644531 89.015625 C 17.933594 89.238281 17.5625 87.84375 17.773438 84.015625 C 17.777344 83.96875 17.796875 83.914062 17.746094 83.882812 C 17.476562 83.714844 17.347656 83.402344 17.046875 83.203125 C 17.652344 83.042969 17.746094 82.589844 17.730469 82.074219 C 17.703125 81.167969 18.285156 80.199219 19.128906 79.902344 C 19.25 79.859375 19.421875 79.746094 19.355469 79.542969 C 19.328125 79.449219 19.398438 79.347656 19.429688 79.34375 C 19.730469 79.328125 19.640625 79.105469 19.632812 78.957031 C 19.617188 78.613281 19.707031 78.261719 19.574219 77.921875 C 19.554688 77.871094 19.882812 77.214844 19.230469 76.886719 C 20.214844 76.191406 19.664062 76.574219 20.007812 75.003906 C 20.140625 74.402344 21.09375 74.507812 21.417969 74.039062 C 21.601562 73.773438 21.609375 73.757812 21.253906 73.621094 C 21.71875 73.585938 21.449219 73.28125 21.617188 72.84375 C 21.6875 72.660156 21.640625 72.582031 21.46875 72.480469 C 21.191406 72.320312 21.246094 71.792969 21.527344 71.652344 C 21.726562 71.550781 21.691406 71.105469 21.5 70.921875 C 21.253906 70.683594 20.984375 70.464844 20.933594 70.074219 C 20.914062 69.925781 20.632812 69.964844 20.539062 69.808594 C 20.550781 69.679688 21.042969 69.773438 20.953125 69.386719 C 20.929688 69.300781 20.980469 69.257812 21.066406 69.261719 C 21.078125 69.273438 21.0625 69.332031 21.109375 69.285156 C 21.09375 69.28125 21.078125 69.273438 21.058594 69.269531 C 20.980469 68.898438 21.710938 68.820312 21.667969 68.195312 C 21.578125 66.9375 22.015625 67.566406 21.890625 68.253906 C 21.785156 68.859375 23.019531 69.367188 22.503906 69.699219 C 22.648438 69.804688 22.953125 69.65625 22.96875 69.875 C 22.980469 70.015625 22.910156 69.984375 22.628906 69.980469 C 22.628906 69.980469 22.617188 69.976562 22.617188 69.976562 L 22.636719 69.980469 C 22.585938 70.152344 22.546875 70.3125 22.441406 70.484375 C 22.25 70.785156 21.773438 70.941406 21.886719 71.421875 C 21.914062 71.527344 21.878906 71.621094 22.046875 71.671875 C 22.320312 71.757812 22.363281 72.269531 22.140625 72.464844 C 22.042969 72.546875 21.878906 72.605469 21.910156 72.753906 C 21.972656 73.027344 21.855469 73.339844 22.082031 73.570312 C 22.140625 73.628906 22.226562 73.691406 22.15625 73.75 C 21.9375 73.941406 22.109375 74 22.230469 74.125 C 22.816406 74.714844 23.660156 74.609375 23.574219 75.878906 C 23.5 76.972656 24.453125 76.960938 24.117188 77.21875 C 23.582031 77.628906 24.011719 77.996094 23.910156 78.222656 C 23.75 78.582031 23.847656 78.964844 23.808594 79.335938 C 23.800781 79.4375 23.898438 79.429688 23.929688 79.488281 C 23.988281 79.601562 24.308594 79.605469 24.074219 79.847656 C 24.0625 79.859375 24.164062 79.964844 24.242188 80 C 25.105469 80.417969 25.519531 81.148438 25.652344 82.117188 C 25.824219 82.085938 25.710938 81.929688 25.828125 81.867188 C 25.886719 82.277344 25.796875 82.695312 25.9375 83.085938 C 25.9375 83.035156 25.867188 71.910156 25.917969 71.902344 C 26.273438 71.851562 26.59375 71.671875 26.957031 71.65625 C 27.394531 71.632812 27.207031 71.429688 27.015625 70.976562 C 27.394531 70.796875 27.34375 71.214844 27.699219 71.542969 C 27.90625 71.738281 28.15625 71.71875 28.277344 71.171875 C 28.285156 71.121094 28.292969 71.046875 28.347656 71.066406 C 28.546875 71.148438 28.738281 71.046875 28.933594 71.058594 C 28.996094 71.0625 29.0625 71.089844 29.125 71.019531 C 29.257812 70.855469 29.398438 70.699219 29.546875 71.019531 C 29.636719 71.21875 29.929688 70.847656 30.109375 71.070312 C 30.117188 71.085938 30.148438 71.101562 30.15625 71.097656 C 30.808594 70.734375 31.492188 71.066406 32.15625 71.003906 C 33.339844 70.894531 33.796875 71.136719 33.660156 70.785156 C 33.636719 70.722656 33.589844 70.597656 33.746094 70.582031 C 34.277344 70.523438 33.621094 71.070312 34.464844 71.0625 C 34.917969 71.058594 34.917969 71.0625 34.957031 71.5 C 34.960938 71.5625 34.9375 71.660156 35.042969 71.652344 C 35.332031 71.628906 35.582031 71.804688 35.878906 71.789062 C 36.269531 71.773438 36.652344 71.929688 37.050781 71.921875 C 37.246094 71.917969 37.289062 72.042969 37.289062 72.234375 C 37.253906 78.261719 37.3125 83.332031 37.347656 83.753906 C 37.335938 83.761719 37.324219 83.765625 37.316406 83.773438 C 37.335938 83.773438 37.332031 83.78125 37.339844 83.746094 C 37.390625 88.277344 37.175781 88.238281 37.628906 88.246094 C 37.851562 88.246094 38.121094 88.132812 38.25 88.484375 C 38.28125 88.570312 38.589844 88.667969 38.75 88.546875 C 39.125 88.257812 39.601562 88.84375 39.863281 88.390625 C 39.871094 88.371094 39.921875 88.355469 39.9375 88.367188 C 40.316406 88.660156 40.058594 88.265625 40.152344 86.417969 C 40.171875 86.105469 40.230469 85.800781 40.15625 85.480469 C 40.125 85.335938 40.257812 85.304688 40.394531 85.300781 C 40.550781 85.296875 40.644531 85.324219 40.625 85.507812 C 40.527344 86.5625 40.644531 87.613281 40.628906 88.289062 C 40.625 88.574219 40.816406 88.519531 40.988281 88.515625 C 41.097656 88.515625 41.105469 88.515625 41.097656 88.3125 C 41.050781 87.152344 41.027344 85.996094 41.027344 84.835938 C 41.027344 84.496094 40.832031 82.796875 41.132812 82.613281 C 41.230469 82.554688 41.355469 82.554688 41.472656 82.550781 C 42.164062 82.550781 42.859375 82.503906 43.546875 82.445312 C 44.082031 82.398438 44.816406 82.476562 45.324219 82.3125 C 45.546875 82.246094 45.558594 82.140625 45.605469 81.9375 C 45.691406 81.574219 45.667969 81.164062 45.675781 80.792969 C 45.707031 78.761719 45.65625 76.722656 45.648438 74.691406 C 45.628906 70.917969 45.640625 67.144531 45.675781 63.375 C 45.757812 54.375 45.316406 54.769531 46.007812 54.410156 C 46.464844 54.175781 46.945312 54.375 47.402344 54.296875 C 48.015625 54.191406 48.515625 54.476562 49.039062 54.710938 C 49.136719 54.609375 49.023438 54.445312 49.152344 54.367188 C 49.285156 54.441406 49.03125 54.863281 49.578125 54.949219 C 49.878906 54.996094 50.152344 55.234375 50.441406 55.386719 C 50.542969 55.441406 50.515625 55.542969 50.515625 55.625 C 50.53125 57.09375 50.441406 57.222656 50.730469 57.007812 C 50.875 56.902344 50.742188 57.242188 50.917969 57.222656 C 51.042969 57.207031 50.992188 57.097656 50.992188 57.03125 C 50.996094 56.242188 51.003906 55.453125 50.988281 54.667969 C 50.976562 54.054688 51.375 54.371094 51.535156 53.804688 C 51.726562 53.128906 51.742188 52.863281 51.707031 47.976562 C 51.699219 47.113281 52.238281 47.867188 52.515625 46.34375 C 52.5625 46.09375 52.574219 45.835938 52.488281 45.582031 C 52.257812 44.917969 52.804688 44.03125 52.449219 43.28125 C 52.417969 43.214844 52.398438 43.109375 52.429688 43.050781 C 52.742188 42.449219 52.371094 39.101562 52.78125 39.097656 C 53.046875 39.097656 52.757812 39.457031 53.019531 39.914062 C 53.125 40.101562 53.019531 40.296875 53.019531 40.488281 C 53.019531 41.183594 52.925781 41.898438 53.046875 42.574219 C 53.160156 43.203125 52.902344 43.800781 53.035156 44.398438 C 53.238281 45.3125 52.925781 46.972656 53.511719 47.003906 C 53.980469 47.023438 53.820312 47.421875 53.964844 47.472656 C 54.429688 47.648438 54.261719 47.710938 54.289062 51.527344 C 54.292969 52.300781 54.332031 53.074219 54.320312 53.847656 C 54.320312 54.085938 54.402344 54.21875 54.59375 54.273438 C 54.871094 54.355469 54.8125 54.421875 54.820312 55.9375 C 54.820312 56.003906 54.785156 56.082031 54.886719 56.105469 C 55.042969 56.140625 54.972656 55.863281 55.125 55.917969 C 55.453125 56.035156 55.796875 55.980469 56.132812 56.007812 C 56.503906 56.039062 56.871094 56.148438 57.253906 56.101562 C 57.484375 56.074219 57.6875 56.21875 57.910156 56.265625 C 58.460938 56.386719 58.160156 57.019531 58.230469 59.804688 C 58.242188 60.359375 58.320312 67.074219 58.21875 67.402344 C 58.21875 67.398438 58.214844 67.398438 58.210938 67.394531 C 58.21875 67.398438 58.222656 67.402344 58.226562 67.40625 C 58.222656 67.449219 58.214844 67.488281 58.210938 67.527344 C 58.199219 67.539062 58.140625 67.523438 58.183594 67.570312 C 58.191406 67.554688 58.199219 67.539062 58.203125 67.519531 C 58.308594 67.722656 58.535156 67.667969 58.695312 67.710938 C 59.132812 67.824219 59.585938 67.839844 60.019531 67.609375 C 60.382812 68.742188 60.292969 68.703125 60.292969 73.96875 C 60.292969 74.347656 60.277344 74.503906 60.417969 74.542969 C 60.566406 74.578125 60.71875 74.507812 60.769531 74.328125 C 60.816406 74.160156 60.867188 74.28125 60.917969 74.324219 C 60.902344 74.316406 60.886719 74.308594 60.871094 74.300781 C 60.867188 74.3125 60.867188 74.320312 60.863281 74.328125 C 60.882812 74.328125 60.898438 74.324219 60.917969 74.320312 C 61.011719 74.390625 60.847656 74.464844 60.925781 74.558594 C 60.976562 74.621094 60.988281 74.683594 61.066406 74.625 C 61.582031 74.246094 61.9375 74.6875 62.355469 74.867188 C 62.414062 74.816406 62.359375 74.726562 62.382812 74.660156 C 62.445312 74.488281 62.683594 74.523438 62.691406 74.671875 C 62.699219 74.886719 62.738281 75.097656 62.734375 75.308594 C 62.730469 75.511719 62.84375 75.585938 63.003906 75.589844 C 64.488281 75.628906 64.34375 75.609375 64.355469 75.429688 C 64.394531 74.765625 64.363281 74.734375 64.488281 74.667969 C 64.550781 74.636719 64.621094 74.695312 64.636719 74.738281 C 64.6875 74.886719 64.785156 74.816406 64.882812 74.828125 C 65.070312 74.847656 65.234375 74.617188 65.449219 74.820312 C 65.5625 74.929688 65.75 74.703125 65.945312 74.785156 C 66.019531 74.816406 66.019531 74.601562 65.964844 74.457031 C 66.480469 74.960938 66.589844 75.542969 66.464844 76.226562 C 66.625 76.167969 66.691406 76.117188 66.839844 76.222656 C 67 76.34375 67.3125 76.265625 67.5625 76.257812 C 67.621094 76.257812 67.628906 76.304688 67.683594 75.402344 C 67.695312 75.214844 67.832031 75.1875 67.90625 75.300781 C 68.011719 75.46875 68.140625 75.417969 68.269531 75.417969 C 68.753906 75.417969 69.234375 75.382812 69.703125 75.238281 C 69.730469 75.230469 69.785156 75.238281 69.789062 75.230469 C 69.867188 74.855469 70.078125 75.097656 70.269531 75.105469 C 70.621094 75.117188 70.984375 75.21875 71.332031 75.039062 C 71.441406 74.984375 71.515625 75.132812 71.628906 75.128906 C 71.917969 75.125 72.203125 75.125 72.492188 75.132812 C 73.144531 75.148438 72.945312 72.191406 72.988281 85.871094 C 72.988281 86.027344 72.914062 86.210938 73.070312 86.347656 L 73.0625 86.339844 C 73.125 86.382812 73.191406 86.425781 73.253906 86.46875 C 73.253906 86.464844 73.25 86.460938 73.246094 86.457031 C 73.246094 86.464844 73.246094 86.46875 73.246094 86.476562 C 73.574219 86.496094 73.902344 86.445312 74.210938 86.367188 C 74.808594 86.21875 74.359375 85.441406 74.59375 84.695312 C 74.667969 84.449219 74.960938 84.28125 75.199219 84.351562 L 75.191406 84.34375 C 75.214844 84.414062 75.238281 84.386719 75.261719 84.34375 L 75.253906 84.351562 C 75.296875 84.351562 75.335938 84.351562 75.375 84.351562 L 75.367188 84.34375 C 75.390625 84.402344 75.417969 84.363281 75.441406 84.347656 L 75.4375 84.351562 C 75.476562 84.351562 75.515625 84.351562 75.554688 84.351562 L 75.546875 84.34375 C 75.570312 84.402344 75.59375 84.386719 75.621094 84.34375 L 75.613281 84.351562 C 75.679688 84.296875 75.738281 84.226562 75.816406 84.195312 C 76.457031 83.925781 75.472656 83.644531 75.980469 83.601562 C 76.058594 83.597656 76.023438 83.722656 76.03125 81.390625 C 76.035156 81.070312 76.160156 80.925781 76.476562 80.949219 C 77.128906 80.992188 77.792969 80.890625 78.421875 80.988281 C 78.953125 81.070312 78.777344 80.78125 78.777344 80.570312 C 78.785156 79.296875 78.777344 78.019531 78.777344 76.746094 C 78.777344 76.335938 79.210938 76.035156 79.574219 76.167969 C 79.519531 75.433594 79.5625 74.6875 79.546875 73.945312 C 79.546875 73.84375 79.644531 73.828125 79.671875 73.753906 L 79.664062 73.761719 C 79.6875 73.738281 79.710938 73.714844 79.730469 73.691406 L 79.722656 73.699219 C 79.738281 73.691406 79.753906 73.683594 79.769531 73.675781 C 79.753906 73.660156 79.738281 73.644531 79.722656 73.628906 L 79.730469 73.636719 C 80.011719 73.433594 80.339844 73.484375 80.652344 73.472656 C 82.371094 73.398438 82.351562 73.535156 82.351562 73.871094 C 82.347656 74.5 82.347656 75.125 82.351562 75.753906 C 82.351562 75.949219 82.4375 76.066406 82.652344 76.027344 L 82.644531 76.035156 C 82.710938 75.964844 82.785156 76.015625 82.851562 76.027344 L 82.859375 76.015625 C 82.894531 76.316406 83.039062 75.945312 83.101562 76.054688 L 83.101562 76.050781 C 83.199219 76.050781 83.183594 76.332031 83.359375 76.15625 Z M 83.351562 76.160156 " fill-opacity="1" fill-rule="nonzero"/></g><path fill="#ffffff" d="M 85.070312 88.570312 C 84.953125 88.632812 84.96875 88.511719 85.035156 88.53125 C 85.050781 88.535156 85.058594 88.554688 85.070312 88.570312 Z M 85.070312 88.570312 " fill-opacity="1" fill-rule="nonzero"/><path fill="#ffffff" d="M 58.796875 67.6875 L 58.777344 67.675781 L 58.800781 67.671875 Z M 58.796875 67.6875 " fill-opacity="1" fill-rule="nonzero"/><path fill="#ffffff" d="M 85.480469 84.136719 L 85.503906 84.128906 L 85.503906 84.148438 Z M 85.480469 84.136719 " fill-opacity="1" fill-rule="nonzero"/><path fill="#ffffff" d="M 84.300781 88.453125 C 84.273438 88.449219 84.230469 88.453125 84.226562 88.441406 C 84.203125 88.371094 84.242188 88.429688 84.292969 88.457031 C 84.296875 88.457031 84.300781 88.453125 84.300781 88.453125 Z M 84.300781 88.453125 " fill-opacity="1" fill-rule="nonzero"/><path fill="#ffffff" d="M 84.878906 88.515625 C 84.875 88.476562 84.871094 88.441406 84.867188 88.402344 C 84.9375 88.417969 84.875 88.433594 84.878906 88.515625 Z M 84.878906 88.515625 " fill-opacity="1" fill-rule="nonzero"/><path fill="#ffffff" d="M 16.710938 88.800781 L 16.726562 88.8125 L 16.710938 88.816406 Z M 16.710938 88.800781 " fill-opacity="1" fill-rule="nonzero"/><path fill="#ffffff" d="M 92.597656 60.886719 C 92.664062 60.90625 92.628906 60.925781 92.597656 60.945312 C 92.597656 60.945312 92.609375 60.953125 92.609375 60.953125 C 92.605469 60.929688 92.605469 60.90625 92.605469 60.882812 Z M 92.597656 60.886719 " fill-opacity="1" fill-rule="nonzero"/><path fill="#ffffff" d="M 122.355469 72.539062 C 122.359375 72.554688 122.363281 72.566406 122.367188 72.582031 C 122.382812 72.566406 122.394531 72.554688 122.40625 72.539062 C 122.40625 72.539062 122.417969 72.554688 122.417969 72.554688 C 122.390625 72.554688 122.367188 72.554688 122.34375 72.554688 Z M 122.355469 72.539062 " fill-opacity="1" fill-rule="nonzero"/><path fill="#ffffff" d="M 79.671875 73.695312 C 79.671875 73.652344 79.695312 73.636719 79.730469 73.636719 C 79.730469 73.636719 79.722656 73.601562 79.722656 73.699219 C 79.738281 73.683594 79.6875 73.691406 79.664062 73.691406 Z M 79.671875 73.695312 " fill-opacity="1" fill-rule="nonzero"/><path fill="#ffffff" d="M 79.671875 73.753906 C 79.628906 73.734375 79.625 73.714844 79.671875 73.695312 C 79.671875 73.695312 79.664062 73.691406 79.664062 73.691406 C 79.664062 73.714844 79.664062 73.738281 79.664062 73.761719 Z M 79.671875 73.753906 " fill-opacity="1" fill-rule="nonzero"/><path fill="#ffffff" d="M 69.636719 75.042969 C 69.632812 75.046875 69.628906 75.054688 69.625 75.058594 C 69.617188 75.054688 69.609375 75.046875 69.601562 75.039062 C 69.625 75.019531 69.613281 75.019531 69.636719 75.042969 Z M 69.636719 75.042969 " fill-opacity="1" fill-rule="nonzero"/><path fill="#ffffff" d="M 82.65625 76.027344 C 82.640625 76.023438 82.625 76.015625 82.609375 76.007812 C 82.617188 76.003906 82.625 75.996094 82.628906 75.988281 C 82.636719 76.007812 82.640625 76.039062 82.65625 76.027344 Z M 82.65625 76.027344 " fill-opacity="1" fill-rule="nonzero"/><path fill="#ffffff" d="M 82.851562 76.027344 C 82.851562 76.019531 82.847656 76.011719 82.84375 76.007812 C 82.847656 76.011719 82.851562 76.015625 82.859375 76.015625 C 82.859375 76.015625 82.851562 76.027344 82.851562 76.027344 Z M 82.851562 76.027344 " fill-opacity="1" fill-rule="nonzero"/><path fill="#ffffff" d="M 83.101562 76.054688 C 83.125 76.058594 83.148438 76.058594 83.167969 76.0625 C 83.164062 76.070312 83.164062 76.078125 83.160156 76.085938 C 83.140625 76.074219 83.121094 76.0625 83.101562 76.050781 C 83.101562 76.050781 83.101562 76.054688 83.101562 76.054688 Z M 83.101562 76.054688 " fill-opacity="1" fill-rule="nonzero"/><path fill="#ffffff" d="M 83.359375 76.15625 C 83.34375 76.144531 83.332031 76.132812 83.320312 76.121094 C 83.332031 76.121094 83.34375 76.117188 83.351562 76.113281 C 83.351562 76.128906 83.351562 76.144531 83.351562 76.160156 C 83.351562 76.160156 83.359375 76.15625 83.359375 76.15625 Z M 83.359375 76.15625 " fill-opacity="1" fill-rule="nonzero"/><path fill="#ffffff" d="M 75.199219 84.351562 C 75.207031 84.335938 75.21875 84.320312 75.226562 84.304688 C 75.238281 84.320312 75.246094 84.335938 75.253906 84.351562 C 75.253906 84.351562 75.285156 84.34375 75.191406 84.34375 Z M 75.199219 84.351562 " fill-opacity="1" fill-rule="nonzero"/><path fill="#ffffff" d="M 75.375 84.351562 C 75.394531 84.304688 75.417969 84.296875 75.4375 84.351562 C 75.4375 84.351562 75.441406 84.347656 75.441406 84.347656 C 75.417969 84.34375 75.394531 84.34375 75.367188 84.34375 Z M 75.375 84.351562 " fill-opacity="1" fill-rule="nonzero"/><path fill="#ffffff" d="M 75.554688 84.351562 C 75.574219 84.296875 75.59375 84.292969 75.613281 84.351562 C 75.613281 84.351562 75.644531 84.34375 75.546875 84.34375 Z M 75.554688 84.351562 " fill-opacity="1" fill-rule="nonzero"/><path fill="#ffffff" d="M 91.214844 60.765625 C 91.230469 60.753906 91.246094 60.746094 91.261719 60.734375 C 91.246094 60.726562 91.230469 60.71875 91.214844 60.707031 C 91.214844 60.707031 91.230469 60.699219 91.230469 60.699219 C 91.230469 60.722656 91.230469 60.75 91.230469 60.773438 Z M 91.214844 60.765625 " fill-opacity="1" fill-rule="nonzero"/><path fill="#ffffff" d="M 73.070312 86.347656 C 73.066406 86.328125 73.066406 86.308594 73.0625 86.289062 C 73.121094 86.308594 73.066406 86.320312 73.0625 86.339844 C 73.0625 86.339844 73.070312 86.347656 73.070312 86.347656 Z M 73.070312 86.347656 " fill-opacity="1" fill-rule="nonzero"/><path fill="#ffffff" d="M 90.339844 61.039062 C 90.339844 61.042969 90.339844 61.050781 90.339844 61.054688 C 90.339844 61.054688 90.335938 61.050781 90.332031 61.046875 C 90.332031 61.046875 90.339844 61.039062 90.339844 61.039062 Z M 90.339844 61.039062 " fill-opacity="1" fill-rule="nonzero"/></svg>