<svg width="512" height="512" viewBox="0 0 512 512" fill="none" xmlns="http://www.w3.org/2000/svg">
<g clip-path="url(#clip0_2_19)">
<rect width="512" height="512" rx="100" fill="#0B9BE6"/>
<path d="M477.565 -72.192C452.832 -59.1107 381.428 11.3335 275.571 127.234L263.991 140.019L264.298 144.777C265.142 157.863 263.05 171.735 259.272 177.508C255.018 184.214 249.989 185.32 235.674 182.782C224.337 180.818 219.86 180.968 215.625 183.232C204.704 189.144 195.402 205.916 187.239 234.163L184.024 245.351L187.14 248.55C193.046 254.632 214.418 277.789 214.56 278.316C214.62 278.541 214.319 278.622 213.807 278.517C213.37 278.392 213.054 278.719 213.215 279.321C213.377 279.923 213.167 280.948 212.686 281.561C212.06 282.535 211.568 282.506 210.683 281.613C208.914 279.828 209.604 281.499 211.624 283.62C212.569 284.738 213.323 285.746 213.213 285.937C213.103 286.128 210.185 289.088 206.69 292.607C203.176 296.049 160.567 338.769 112.048 387.43L23.7635 475.871L5.47182 480.772L-12.8951 485.694L-36.0225 531.262C-48.8334 556.316 -59.9765 578.261 -60.928 580.13C-62.686 583.505 -62.6658 583.581 -60.8308 585.913C-59.8252 587.257 -58.794 588.998 -58.552 589.901C-58.1486 591.406 -39.3068 605.721 -38.1024 605.398C-37.8013 605.317 -37.6212 604.785 -37.7624 604.258C-37.8082 603.786 -37.1253 603.926 -36.1305 604.627L-34.3319 605.92L-14.682 590.732C-3.83896 582.421 16.167 567.056 29.7535 556.639L54.5392 537.734L54.4728 515.807C54.4584 503.71 54.3204 493.258 54.2692 492.465C54.1777 491.522 82.5262 463.03 145.733 400.833C221.619 326.041 237.253 310.315 236.834 309.056C236.759 309.076 236.613 308.228 236.834 309.056C236.91 309.036 238.577 309.234 240.994 311.33C243.431 313.5 237.787 307.278 239.108 308.296L240.994 308.808L249.534 316.706C248.371 313.871 249.079 314.407 258.815 324.546C263.605 329.475 267.626 333.641 267.817 333.752C268.41 334.158 280.747 332.627 290.945 330.943C309.133 327.764 324.442 321.967 329.711 316.038C334.589 310.455 335.696 304.349 334.397 288.965C333.267 275.714 333.697 269.79 336.206 265.003C339.466 258.804 343.675 256.144 355.343 253.017C363.623 250.799 367.809 250.161 380.984 249.051C383.59 248.837 387.617 245.499 424.158 212.956C502.886 143.051 553.023 95.0054 581.136 62.6236C596.491 44.9552 598.28 42.2976 599.662 35.7148C603.257 19.0194 591.591 -1.33229 559.308 -34.7964C542.898 -51.7792 531.26 -61.4887 519.41 -68.0757C503.497 -76.8816 489.163 -78.285 477.565 -72.192Z" fill="white"/>
</g>
<defs>
<clipPath id="clip0_2_19">
<rect width="512" height="512" rx="100" fill="white"/>
</clipPath>
</defs>
</svg>
